<?xml version="1.0" encoding="utf-8"?>
<!-- Generator: Adobe Illustrator 27.3.1, SVG Export Plug-In . SVG Version: 6.00 Build 0)  -->
<svg version="1.1" id="Calque_1" xmlns="http://www.w3.org/2000/svg" xmlns:xlink="http://www.w3.org/1999/xlink" x="0px" y="0px"
	 viewBox="0 0 1920 1080" style="enable-background:new 0 0 1920 1080;" xml:space="preserve">
<style type="text/css">
	.st0{display:none;fill:#FFFFFF;}
	.st1{fill:#FFFFFF;}
</style>
<g>
	<g>
		<path class="st0" d="M-73.41,1586.83c0-617.13,0-1234.26,0-1851.42c0.48-0.08,1.01-0.25,1.53-0.25
			c688.24-0.01,1376.47-0.01,2064.71,0c0.18,0,0.37,0.24,0.47,0.31c0,617.16,0,1234.26,0,1851.36
			C1304.35,1586.83,615.49,1586.83-73.41,1586.83z M1364.27,382.32c-0.06-0.97-0.54-1.48-1.55-1.4c-0.6-0.7-1.12-1.51-1.82-2.09
			c-8.68-7.22-18.09-13.35-28.07-18.61c-1.39-0.73-2.78-1.42-3.94-2.49c0.71-0.95,1.69-1.44,2.85-1.61
			c1.17-0.18,2.09-0.75,2.73-1.76c0.59-0.66,1.59-0.87,1.92-1.79c0.91-0.19,1.91-0.19,2.7-0.59c4.62-2.34,7.9-6.02,10.08-10.65
			c2.14-4.54,3.44-9.36,3.89-14.34c0.75-8.39,0.49-16.79-0.23-25.18c-0.08-0.93-0.28-1.84-0.42-2.77
			c-0.51-3.38-1.02-6.77-1.53-10.15c0.74-1.7,0.4-3.12-1.09-4.24c-0.31-1.7-0.62-3.4-0.94-5.1c0.6-1.56,0.43-3.57,2.5-4.26
			c0.5,0.07,1.01,0.14,1.51,0.21c1.95,1.4,4.02,2.34,6.5,1.67c0.35,0.04,0.67,0.15,0.97,0.32c1.23,1.48,2.73,2.23,4.69,1.63
			c0.61,0.13,1.25,0.19,1.82,0.42c7.26,2.86,14.19,6.36,20.74,10.62c1.82,1.19,3.66,2.33,5.5,3.49c0.7,0.44,1.21,0.24,1.44-0.58
			c1.27-4.55,1.54-9.19,1.05-13.86c-0.32-3.09-0.61-6.21-1.5-9.21c0.5-1.65-0.3-2.82-1.43-3.88c-1.68-5.17-4.74-9.47-8.59-13.2
			c-2.24-2.17-4.69-4.12-7.09-6.11c-1.44-1.2-3-2.25-4.44-3.44c-0.45-0.38-0.71-1-1.05-1.51c0.35,0,0.41-1.21,0.09-2.19
			c0.37-3.39,0.72-6.78,1.1-10.17c0.58-5.27,0.45-10.54-0.16-15.79c-0.29-2.47-0.61-4.93-0.92-7.39c0.73-1.71,0.26-3.09-1.18-4.2
			c-0.28-1.86-1.1-3.54-1.76-5.29c-3.48-9.27-9.39-16.7-17.13-22.77c-3.43-2.69-7.1-5.02-10.95-7.05
			c-4.39-2.31-8.94-4.29-13.58-6.07c-5.51-2.11-11.15-3.78-16.74-5.64c-1.64-1.75-3.59-2.45-5.96-1.73c-0.45,0-0.89-0.06-1.32-0.19
			c-1.76-1.87-3.93-2.27-6.35-1.76c-0.84-0.17-1.68-0.39-2.54-0.48c-0.54-0.05-1.1,0.11-1.65,0.17c-0.51-0.75-1.19-1.28-2.1-1.38
			c-0.86-0.09-1.74-0.06-2.61-0.09c-1.57-1.33-3.55-1.56-5.45-2.03c-1.79-1.75-3.88-2.41-6.34-1.79c-2.39-0.69-4.81-1.28-7.15-2.08
			c-6.46-2.22-12.97-4.3-19.21-7.13c-5.39-2.45-10.63-5.14-15.57-8.42c-5.21-3.46-9.98-7.43-14.12-12.14
			c-1.03-1.17-2.02-2.37-3.12-3.46c-0.41-0.41-1.07-0.6-1.66-0.78c-0.14-0.04-0.45,0.39-0.63,0.64c-4.26,6.2-7.16,13.05-9.64,20.11
			c-1.03,2.94-2.05,5.87-2.25,9.02c-1.05,0.6-1.36,1.42-0.79,2.52c-0.9,4.32-0.9,8.69-0.6,13.05c0.46,6.71,2.83,12.72,7.11,17.95
			c2.6,3.17,5.7,5.77,9.2,7.88c2.94,1.77,6.05,3.18,9.29,4.38c3.81,1.42,7.81,2.15,11.67,3.41c0.25,0.65,0.5,1.3,0.75,1.95
			c-1.53,0.42-3.11,0.7-4.34,1.83c0,0-0.02,0.25-0.01,0.25c-0.48-0.3-0.99-0.39-1.54-0.26c-2.86-0.5-5.61-0.48-7.82,1.81
			c0,0-0.05,0.42-0.04,0.42c-0.52-0.27-1.06-0.35-1.63-0.25c-2.28-0.69-4.23-0.25-5.74,1.68l-0.01,0.07
			c-2.37-0.55-4.44-0.14-6.03,1.85c-0.6,0.18-1.21,0.33-1.79,0.56c-19.07,7.58-36.02,18.53-51.31,32.13
			c-0.45,0.4-0.7,1.01-1.04,1.53c-1.16,0-1.36,0.15-1.55,1.45l-0.32,0.29c-1.15,0-1.44,0.24-1.65,1.56
			c-0.95,0.22-1.61,0.87-2.28,1.52c-8.76,8.5-16.58,17.8-23.6,27.77c-11.19,15.89-19.94,33.06-26.66,51.27
			c-0.21,0.58-0.26,1.22-0.38,1.83c-1.52,0.98-1.97,2.36-1.55,4.07c-0.21,0.53-0.44,1.06-0.68,1.58c-1.68,0.87-1.87,2.27-1.4,3.9
			c0,0.62-0.14,1.2-0.41,1.75c-1.7,0.91-1.85,2.35-1.35,4c-0.04,0.58-0.11,1.16-0.21,1.73c-1.28,1.08-1.85,2.37-1.25,4.03
			c-0.98,4.21-2.22,8.35-2.95,12.62c-1.1,0.59-1.32,1.44-0.74,2.52c-0.24,1.75-0.48,3.49-0.72,5.24c-0.22,0.2-0.49,0.37-0.67,0.61
			c-0.44,0.59-0.36,1.15,0.19,1.64c-0.32,1.44-0.73,2.88-0.93,4.34c-0.36,2.64-0.58,5.31-0.86,7.96c-1.04,0.65-1.22,1.53-0.7,2.6
			c-0.79,3.56-0.77,7.27-1.89,10.78c-0.78,0-0.98,1.19-0.38,2.3c-0.23,1.84-0.4,3.7-0.69,5.53c-0.93,5.81-2.06,11.59-2.84,17.41
			c-1.52,11.35-3.45,22.65-4.67,34.04c-0.03,0.31-0.14,0.6-0.22,0.9c-1.17,1.05-1.17,1.05-0.6,2.56
			c-0.55,11.17-2.57,22.19-3.14,33.36c-0.03,0.61-0.17,1.24-0.38,1.82c-0.2,0.58-0.55,1.1-0.83,1.65
			c-7.48,0.08-14.96,0.42-22.43-0.22c-1.76-1.14-3.63-1.75-5.74-1.2c-1.86-0.28-3.71-0.74-5.6-0.31l0.17-0.14
			c-1.6-1.97-3.69-2.23-6.01-1.77c-0.36-0.07-0.72-0.09-1.08-0.07c-1.17-1.55-2.73-2.06-4.61-1.73c-1.12-0.56-2.21-1.18-3.35-1.66
			c-9.55-4.06-18.24-9.56-26.36-15.97c-4.91-3.88-9.56-8.04-14.04-12.41c-8.29-8.09-15.86-16.82-23.13-25.82
			c-7.86-9.72-15.31-19.75-22.57-29.92c-9.25-12.96-18.38-26.02-27.59-39.01c-12.65-17.84-25.58-35.47-39.43-52.41
			c-16.04-19.63-33.15-38.25-52.18-55.05c-11.02-9.73-22.49-18.88-34.57-27.27c-27.9-19.39-58.17-33.93-90.57-44.07
			c-1.17-0.36-2.46-0.32-3.69-0.46c-1.57-1.76-3.61-1.89-5.76-1.66c-0.3-0.59-0.73-0.7-1.28-0.33c-0.33-0.58-0.8-0.97-1.41-1.13
			c-0.9-0.24-1.81-0.46-2.72-0.68c-1.66-1.75-3.63-2.36-5.97-1.64c-0.49-0.01-0.97-0.06-1.44-0.16c-1.91-1.47-3.97-2.35-6.43-1.61
			c-1.05-0.12-2.1-0.37-3.15,0l0.04-0.42c-0.63-0.72-1.38-1.29-2.31-1.49c-1.83-0.38-3.67-0.79-5.55-0.2
			c-0.56-0.14-1.08-0.06-1.57,0.25l-0.02-0.34c-0.45-0.33-0.85-0.8-1.36-0.97c-2.15-0.75-4.34-1.21-6.62-0.59
			c-1.09-0.18-2.18-0.38-3.26,0.01l0.04-0.42c-0.81-1.01-1.92-1.48-3.17-1.54c-0.9-0.05-1.81,0.1-2.71,0.15
			c-2.43-0.23-4.86-0.45-7.29-0.68c-1.36-0.8-2.84-1.24-4.39-1.34c-3.08-0.2-6.17-0.34-9.26-0.45c-0.6-0.02-1.2,0.24-1.8,0.37
			c-0.59,0.07-1.12-0.08-1.6-0.42c-0.57-0.89-1.4-1.29-2.44-1.26c-2.71-0.11-5.42-0.21-8.13-0.32c-1.51-0.06-3.01-0.11-4.48,0.35
			c-12.66-0.52-25.33-0.36-38-0.22c-1.85,0.02-3.69,0.27-5.53,0.48c-1.24,0.14-2.37,0.66-3.41,1.35l0.06-0.1
			c-2.36-0.5-4.41-0.11-5.85,2.03c-2.51,1.36-4.23,3.46-5.61,5.91c-0.91,1.62-1.56,3.33-2.18,5.06c-1.32,0.89-1.32,0.89-1.01,2.45
			c-0.26,1.66-0.51,3.32-0.77,4.98c-1.06,0.56-1.38,1.35-0.79,2.44c-0.4,2.87-0.8,5.73-1.21,8.6c-1.03,0.63-1.26,1.49-0.73,2.56
			c-1.06,6.08-2.12,12.15-3.17,18.22c-1.08,0.62-1.28,1.48-0.66,2.54c-1.08,5.83-2.13,11.67-3.24,17.49
			c-1.22,6.44-2.65,12.84-3.59,19.32c-1.09,0.57-1.27,1.41-0.73,2.46c-0.61,2.93-0.65,5.97-1.66,8.83c-0.96,0.62-1.05,1.43-0.5,2.37
			c-0.48,2.86-0.95,5.73-1.43,8.59c-0.84,0.75-0.95,1.63-0.46,2.61c-2.4,11.76-4.3,23.61-6.33,35.43c-1.26,1.1-1.26,1.1-0.67,2.65
			c-0.29,2.64-0.53,5.29-0.88,7.93c-0.19,1.46-0.55,2.89-0.83,4.34c-1.03,0.62-1.13,1.44-0.53,2.41c-0.43,8.4-2.08,16.65-2.97,25
			c-1.12,10.52-2.32,21.02-2.93,31.58c-0.52,9-0.98,18.02-1.31,27.03c-0.46,12.76,0.39,25.5,1.22,38.23
			c0.26,4.03,0.73,8.05,1.17,12.07c0.78,7.12,2.11,14.15,3.11,21.23c-0.56,1.07-0.35,1.92,0.74,2.52c0.33,2.26,0.66,4.51,0.99,6.77
			c-0.5,1.09-0.26,1.91,0.87,2.42c0.64,1.64,0.84,3.37,0.99,5.11c-0.75,1.78-0.11,3.11,1.36,4.17c0.24,0.52,0.41,1.06,0.5,1.62
			c-0.61,1.72-0.07,3.05,1.39,4.06c0.14,0.54,0.28,1.08,0.4,1.63c-0.57,1.72-0.05,3.04,1.45,4.02c0.15,0.53,0.29,1.07,0.44,1.6
			c-0.51,1.71,0.17,2.96,1.53,3.95c1.67,4.71,3.66,9.28,5.77,13.8c12.16,25.96,29.62,47.6,52.79,64.57
			c10.36,7.58,21.4,14,33.09,19.32c2.55,1.16,5.08,2.38,7.62,3.58c1.11,1.29,2.33,2.35,4.23,1.77l-0.13-0.04
			c1.21,1.35,2.61,2.24,4.54,1.75l0.78,0.22c1.64,1.7,3.52,2.67,5.95,2.01l-0.09-0.02c1.51,1.87,3.44,2.46,5.75,1.87l-0.05-0.12
			c1.75,1.54,3.71,2.42,6.1,1.8c0.36,0.09,0.72,0.14,1.09,0.13c1.87,1.47,3.91,2.32,6.35,1.74c0.85,0.15,1.7,0.3,2.55,0.45
			c1.24,1.62,2.88,1.86,4.73,1.36l-0.19,0.18c1.89,1.63,4,2.35,6.48,1.61c0.89,0.08,1.77,0.16,2.66,0.25
			c1.3,0.89,2.75,1.44,4.27,1.79c1.21,0.28,2.43,0.53,3.64,0.79c0.79,0.78,1.75,0.99,2.82,0.86c1.73-0.29,3.37,0.34,5.05,0.53
			c1.14,0.13,2.26,0.17,3.35-0.23l-0.15,0.09c2.94,1.94,6.13,2.53,9.56,1.76l0.01,0.28c0.49,1.01,1.33,1.43,2.41,1.43
			c3-0.01,5.94,0.54,8.88,1.03c0.64,0.72,1.45,0.95,2.38,0.82c2.3-0.09,4.57,0.63,6.87,0.2c1.28,0.23,2.57,0.44,3.84-0.06
			l-0.17,0.18c2.25,1.92,4.91,2.02,7.66,1.69c1.27,0.24,2.54,0.46,3.8-0.05l-0.18,0.18c1.22,0.98,2.64,1.5,4.17,1.74
			c1.81,0.28,3.62,0.55,5.43,0.82c0.91,0.73,1.93,1.2,3.13,1.19c1.43-0.02,2.86-0.03,4.28-0.04c1.1,0.03,2.19,0.1,3.29,0.07
			c0.81-0.02,1.62-0.17,2.43-0.27l-0.01,0.49c0.7,1.03,1.67,1.57,2.9,1.61c0.87,0.03,1.74,0,2.61-0.01c1.28-0.16,2.5,0.06,3.7,0.48
			c1.08,1.09,2.42,1.47,3.91,1.46c1.15-0.01,2.3,0.01,3.45,0.01c1.37-0.12,2.71,0.09,4.01,0.5c1.13,1.28,2.58,1.36,4.12,1.12
			c0.89,0.08,1.79,0.22,2.68,0.22c0.88,0,1.76-0.14,2.64-0.22c0,0-0.04,0.39-0.04,0.38c0.96,1.67,2.51,1.69,4.14,1.48
			c0.88,0.09,1.77,0.24,2.65,0.25c0.87,0.01,1.74-0.13,2.62-0.2l0.04,0.28c0.86,1.24,2.09,1.78,3.55,1.75
			c0.82-0.02,1.63-0.25,2.44-0.38l0.79-0.08l0.59,0.53c0.9,1.31,2.15,1.82,3.71,1.59c0.28-0.04,0.57-0.07,0.86-0.11
			c0.82,0.09,1.65,0.23,2.47,0.26c0.82,0.03,1.64-0.06,2.45-0.09l-0.18,0.17c2.17,2.06,4.77,2.45,7.6,1.93l-0.06-0.12
			c1.82,1.41,3.76,2.36,6.15,1.74c0.36,0.1,0.73,0.15,1.1,0.14c1.78,1.34,3.67,2.35,6.01,1.8l-0.18,0.17
			c1.61,1.84,3.58,2.54,5.98,1.91c2.06,0.66,4.16,1.23,6.19,1.98c8.72,3.27,17.29,6.87,25.44,11.42c9,5.02,17.3,10.98,24.26,18.65
			c0.63,0.69,1.24,1.38,2.14,1.72c-0.11,0.67,0.08,1.24,0.56,1.71c-0.85,2.42-2.61,4.24-4.09,6.23
			c-27.18,36.56-54.37,73.11-81.57,109.66c-2.61,3.5-5.2,7.02-7.55,10.71c-3.36,5.28-6.19,10.83-8.22,16.76
			c-0.5,1.46-0.67,3.03-0.99,4.56c-0.99,0.62-1.3,1.42-0.66,2.47c-0.85,3.62-0.84,7.24-0.13,10.88c-0.62,1.07-0.32,1.89,0.71,2.49
			c0.22,1.54,0.61,3.02,1.25,4.45c2.47,5.51,6.31,9.88,11.03,13.54c3.19,2.48,6.63,4.55,10.3,6.24c2.52,1.16,5.05,2.32,7.58,3.48
			c1.69,1.84,3.72,2.62,6.2,1.98c1.16,0.27,2.33,0.51,3.49,0.81c1.16,0.29,2.3,0.63,3.46,0.95c2.41,1.71,5.02,2.47,7.96,1.75
			c0,0,0.04,0.38,0.03,0.38c0.59,1.04,1.53,1.37,2.66,1.29c2.79,0.28,5.58,0.55,8.38,0.83c0.81,0.38,1.6,1,2.45,1.1
			c2.99,0.37,6.01,0.71,9.02,0.03c2.5-0.01,4.99,0.03,7.44,0.59c0.7,0.62,1.44,1.28,2.39,1.34c5.88,0.33,11.76,0.33,17.64,0
			c0.94-0.05,1.68-0.72,2.39-1.34c1.81-0.23,3.62-0.45,5.43-0.68c1.47,0.42,2.96,0.35,4.46,0.27c2.09-0.11,4.19-0.19,6.29-0.28
			c1.65,0.33,3.25,0.4,4.48-1.06c1.82-0.27,3.63-0.54,5.45-0.81c1.76,0.54,3.54,0.04,5.31,0.08c1.57,0.27,3.05,0.23,4.24-1.04
			c1.51-0.26,3.03-0.48,4.54-0.77c1.81-0.35,3.61-0.74,5.2-1.74c0.89-0.08,1.77-0.15,2.66-0.23c1.12,0.37,2.27,0.41,3.44,0.3
			c0.87-0.08,1.74-0.11,2.61-0.17c1.01-0.07,1.77-0.51,2.19-1.46l-0.01-0.38c0.84,0.09,1.69,0.28,2.52,0.24
			c1.42-0.06,2.84-0.26,4.26-0.4c1.15,0.04,2.08-0.37,2.72-1.35c0.94-0.62,1.96-0.87,3.08-0.7c0.83,0.15,1.66,0.39,2.5,0.42
			c1.5,0.05,2.76-0.51,3.64-1.78l-0.01-0.29c1.1,0.38,2.21,0.38,3.26-0.07c1.02-0.44,1.97-1.01,2.95-1.53
			c0.35-0.04,0.7-0.1,1.06-0.15c2.5,0.72,4.57-0.17,6.48-1.7c0.35-0.06,0.69-0.11,1.04-0.16c2.51,0.75,4.57-0.17,6.45-1.73
			l0.54-0.09l0.55,0.02c2.49,0.69,4.63,0.12,6.41-1.76c2.25-0.69,4.5-1.38,6.75-2.07c2.44,0.55,4.49-0.3,6.35-1.8
			c1.16-0.28,2.33-0.55,3.49-0.84c1.16-0.29,2.31-0.61,3.46-0.91c2.42,0.5,4.58,0.11,6.27-1.86c4.09-1.43,8.18-2.87,12.41-3.84
			c2.41,0.65,4.33-0.21,5.98-1.92l-0.11,0.02c2.35,0.68,4.18-0.19,5.74-1.9l-0.11,0.02c2.45,0.72,4.31-0.36,5.99-1.97
			c1.14-0.5,2.26-1.07,3.44-1.47c26.25-8.93,51.98-19.18,77.29-30.49c28.74-12.83,56.81-27.01,83.91-43.05
			c13.95-8.26,27.6-16.98,40.83-26.36c12.73-9.03,24.96-18.67,36.57-29.11c1.14-1.03,2.13-2.29,3.71-2.73
			c0.88-0.19,1.44-0.72,1.69-1.59l0.29-0.27c0.83-0.2,1.36-0.71,1.59-1.52c0.13-0.28,0.19-0.62,0.39-0.83
			c3.45-3.48,6.92-6.95,10.41-10.4c0.21-0.2,0.54-0.28,0.82-0.41c0.8-0.24,1.3-0.77,1.49-1.58l0.27-0.3
			c0.86-0.25,1.39-0.82,1.58-1.7c0.27-0.55,0.46-1.17,0.84-1.62c1.61-1.9,3.3-3.73,4.91-5.63c10.31-12.14,19.53-25.03,27.06-39.08
			c7.99-14.9,13.99-30.51,16.98-47.2c1.08-0.6,1.18-1.45,0.64-2.47c0.36-3.4,0.67-6.81,1.08-10.2c1.01-8.38,1.03-16.74-0.06-25.12
			c-0.4-3.08-0.66-6.18-0.98-9.28c0.54-1.01,0.45-1.87-0.61-2.49c-1.1-5.4-2.4-10.75-4.1-16.01c-2.37-7.31-5.4-14.33-8.86-21.17
			c-0.56-1.1-1.14-2.16-1.33-3.39c0.19-1.15-0.32-1.87-1.4-2.24l-0.16-0.37c0.27-0.74,0.08-1.24-0.76-1.36
			c-0.42-0.45-0.92-0.85-1.24-1.36c-5.53-8.99-11.93-17.32-19.08-25.07c-0.61-0.67-1.03-1.51-1.54-2.27
			c0.14-0.52,0.25-1.04,0.42-1.55c0.28-0.82,0.91-1.28,1.73-1.49c0.52-0.13,1.05-0.24,1.57-0.35c0.56,0.25,1.2,0.4,1.65,0.77
			c7.92,6.61,15.1,13.94,21.59,21.95c11.29,13.94,19.7,29.43,25.22,46.5c0.38,1.17,0.47,2.44,0.7,3.66
			c-0.75,1.77-0.18,3.14,1.31,4.21c0.22,1.07,0.43,2.14,0.65,3.21c-0.57,1.1-0.34,1.94,0.79,2.5c2,8.88,2.77,17.87,2.6,26.96
			c-0.03,1.56-0.03,3.12-0.05,4.68c-0.1,8.15-1.27,16.16-2.99,24.11c-1.01,0.6-1.11,1.42-0.59,2.39c-0.09,0.56-0.19,1.11-0.29,1.67
			c-1.54,1.67-2.3,3.55-1.59,5.83c-2.4,8.88-2.78,10.02-7.02,20.69c-0.45,1.14-0.84,2.28-0.94,3.5c-0.24,0.18-0.58,0.3-0.71,0.54
			c-1.77,3.44-3.65,6.82-4.87,10.51c-0.44,0.43-1.02,0.78-1.3,1.3c-1.49,2.73-2.9,5.51-4.34,8.27c-1.96,1.21-2.57,3.25-3.17,5.27
			c-0.06,0.21,0.12,0.57,0.3,0.77c0.39,0.46,0.91,0.39,1.5-0.09c1.43-1.18,2.62-2.52,3.1-4.37c1.78-2.43,3.57-4.84,5.31-7.29
			c0.33-0.46,0.42-1.09,0.61-1.65c2.23-2.43,3.91-5.26,5.67-8.02c0.3-0.48,0.33-1.13,0.49-1.7c0.24-0.2,0.54-0.35,0.71-0.6
			c3.59-5.08,6.6-10.51,9.72-15.88c0.3-0.52,0.33-1.18,0.49-1.78c1.01-0.38,1.52-1.08,1.33-2.19l0.21-0.52
			c1.02-0.8,1.94-1.65,1.69-3.14c0.66-1.05,1.42-2.05,1.97-3.15c7.81-15.89,14.33-32.29,19.18-49.33c1.26-1.09,1.98-2.35,1.32-4.06
			c0.19-1.14,0.37-2.28,0.56-3.41c1.14-1.09,1.83-2.33,1.24-3.96c0.21-1.18,0.42-2.37,0.63-3.55c0.21-0.18,0.46-0.32,0.62-0.54
			c0.38-0.52,0.32-1.05-0.11-1.53c0.58-1.09,0.89-2.27,1.09-3.48c0.29-1.81,0.62-3.62,0.93-5.43c1.11-0.57,1.26-1.43,0.73-2.48
			c0.4-2.76,0.74-5.53,1.22-8.28c1.32-7.65,2.17-15.35,2.76-23.08c0.56-7.43,0.62-14.87,0.6-22.32c-0.05-13.68-1.1-27.26-3.83-40.68
			c-0.31-1.52-0.44-3.07-0.66-4.6c0.5-1.05,0.37-1.92-0.75-2.49c-0.41-2.24-0.82-4.47-1.23-6.71c0.37-1.55,0.37-1.55-0.94-2.5
			c-0.27-1.11-0.54-2.22-0.81-3.34c0.63-1.74,0.03-3.05-1.4-4.08c-1.5-5.76-3.71-11.27-5.97-16.75
			c-8.95-21.66-21.78-40.7-38.9-56.79c-0.68-0.64-1.36-1.27-2.32-1.48c-0.08-1.06-0.64-1.6-1.72-1.57L1364.27,382.32z"/>
		<path class="st1" d="M1076.54,449.77c0.07-0.3,0.19-0.6,0.22-0.9c1.21-11.39,3.15-22.69,4.67-34.04
			c0.78-5.83,1.91-11.61,2.84-17.41c0.29-1.83,0.47-3.69,0.69-5.53c0.21-0.21,0.47-0.4,0.63-0.64c0.39-0.6,0.28-1.17-0.25-1.65
			c1.12-3.51,1.1-7.21,1.89-10.78c1.26-1.05,1.26-1.05,0.7-2.6c0.28-2.65,0.51-5.32,0.86-7.96c0.2-1.46,0.61-2.89,0.93-4.34
			c0.81,0,1.04-1.11,0.48-2.25c0.24-1.75,0.48-3.49,0.72-5.24c1.22-1.02,1.22-1.02,0.74-2.52c0.72-4.27,1.96-8.41,2.95-12.62
			c1.58-0.98,1.78-2.39,1.25-4.03c0.09-0.57,0.16-1.15,0.21-1.73c1.12-1.11,1.9-2.33,1.35-4c0.27-0.55,0.41-1.13,0.41-1.75
			c0.99-1.11,1.89-2.26,1.4-3.9c0.24-0.52,0.47-1.05,0.68-1.58c1.38-1.03,2.18-2.28,1.55-4.07c0.12-0.61,0.17-1.25,0.38-1.83
			c6.72-18.22,15.48-35.38,26.66-51.27c7.02-9.97,14.84-19.27,23.6-27.77c0.67-0.65,1.33-1.3,2.28-1.52c0.85-0.2,1.4-0.72,1.65-1.56
			l0.32-0.29c0.79-0.2,1.31-0.67,1.55-1.45c0.34-0.51,0.59-1.13,1.04-1.53c15.29-13.6,32.24-24.55,51.31-32.13
			c0.58-0.23,1.19-0.37,1.79-0.56c2.36,0.51,4.23-0.53,6.02-1.85l0.01-0.07c0.77,0.03,1.54,0.11,2.31,0.09
			c0.78-0.02,1.56-0.14,2.33-0.22c1.13,0.03,2.09-0.28,2.72-1.3l0.05-0.42c1.08,0.38,2.16,0.29,3.24,0.04
			c1.07-0.25,2.14-0.5,3.25-0.26c1.19,0.07,2.19-0.26,2.86-1.32l0.02-0.25c0.87,0.11,1.76,0.36,2.61,0.29
			c2.35-0.2,4.68-0.58,7.03-0.79c0.69-0.06,1.29-0.24,1.13-0.86c-0.16-0.6-0.89-0.69-1.54-0.44c-0.21-1.63-0.26-1.68-1.23-1.88
			c-1.47-0.29-2.94-0.54-4.43-0.09c-3.85-1.26-7.85-1.98-11.66-3.41c-3.23-1.2-6.35-2.61-9.29-4.38c-3.5-2.1-6.6-4.7-9.2-7.88
			c-4.27-5.23-6.65-11.24-7.11-17.95c-0.3-4.36-0.3-8.73,0.6-13.05c1.22-0.98,1.22-0.98,0.79-2.52c0.2-3.14,1.22-6.08,2.25-9.02
			c2.48-7.05,5.38-13.9,9.64-20.11c0.17-0.25,0.49-0.68,0.63-0.64c0.58,0.17,1.25,0.37,1.66,0.78c1.1,1.09,2.09,2.29,3.12,3.46
			c4.14,4.71,8.91,8.68,14.12,12.14c4.93,3.27,10.18,5.97,15.57,8.42c6.24,2.83,12.75,4.92,19.21,7.13c2.35,0.81,4.77,1.4,7.16,2.09
			c1.85,1.51,3.89,2.37,6.33,1.79c1.89,0.47,3.87,0.7,5.44,2.03c0.92,1.39,2.25,1.78,3.83,1.57c0.29-0.04,0.59-0.07,0.88-0.11
			c0.55-0.06,1.11-0.22,1.65-0.17c0.85,0.08,1.69,0.31,2.54,0.48c1.88,1.46,3.88,2.43,6.34,1.76c0.43,0.13,0.87,0.19,1.32,0.19
			c1.73,1.47,3.62,2.35,5.95,1.73c5.58,1.87,11.23,3.54,16.74,5.64c4.64,1.78,9.19,3.76,13.58,6.07c3.85,2.03,7.52,4.36,10.95,7.05
			c7.74,6.07,13.65,13.5,17.13,22.77c0.65,1.74,1.47,3.42,1.76,5.29c-0.53,1.66-0.39,3.13,1.18,4.2c0.31,2.46,0.63,4.92,0.92,7.39
			c0.61,5.26,0.75,10.52,0.16,15.79c-0.38,3.39-0.73,6.78-1.1,10.17c-0.66,0.06-1.06,0.41-1.09,1.07c-0.03,0.67,0.34,1.04,1.01,1.12
			c0.34,0.51,0.59,1.13,1.05,1.51c1.44,1.19,3,2.25,4.44,3.44c2.4,1.99,4.86,3.94,7.09,6.11c3.85,3.73,6.91,8.03,8.59,13.2
			c-0.45,1.63-0.24,3.02,1.43,3.88c0.89,3.01,1.18,6.12,1.5,9.21c0.49,4.66,0.22,9.31-1.05,13.86c-0.23,0.82-0.74,1.02-1.44,0.58
			c-1.84-1.16-3.68-2.3-5.5-3.49c-6.54-4.26-13.48-7.76-20.74-10.62c-0.57-0.23-1.21-0.28-1.82-0.42c-1.25-1.45-2.79-2.05-4.68-1.63
			c-0.3-0.17-0.62-0.28-0.97-0.32c-1.8-1.98-4.06-2.15-6.49-1.66c-0.5-0.07-1.01-0.14-1.51-0.21c-0.51-0.32-0.99-0.75-1.55-0.92
			c-0.96-0.3-1.99,0.27-2.2,1.11c-0.4,1.6-0.25,3.05,1.24,4.08c0.31,1.7,0.62,3.4,0.94,5.1c-0.54,1.64-0.48,3.14,1.09,4.24
			c0.51,3.38,1.02,6.77,1.53,10.15c0.14,0.92,0.34,1.84,0.42,2.77c0.73,8.39,0.99,16.79,0.23,25.18c-0.45,4.98-1.75,9.8-3.89,14.34
			c-2.18,4.63-5.46,8.31-10.08,10.65c-0.8,0.4-1.8,0.4-2.7,0.59c-3.94-0.52-7.85-0.29-11.75,0.39c-0.93-0.13-1.85-0.3-2.79-0.37
			c-0.61-0.04-1.24,0.03-1.85,0.13c-0.28,0.05-0.69,0.24-0.76,0.46c-0.07,0.23,0.11,0.66,0.32,0.84c1.15,0.99,2.18,2.29,4,1.89
			c1.08,0.23,2.09,0.6,3.02,1.23c0.69,0.47,1.46,0.71,2.31,0.6c1.16,1.07,2.55,1.75,3.94,2.49c9.98,5.26,19.39,11.4,28.07,18.61
			c0.7,0.58,1.22,1.39,1.82,2.09c0.24,0.78,0.77,1.23,1.56,1.4l0.31,0.27c0.26,0.87,0.83,1.39,1.72,1.57
			c0.96,0.21,1.63,0.84,2.32,1.48c17.12,16.09,29.95,35.12,38.9,56.79c2.26,5.48,4.47,11,5.97,16.75c-0.52,1.7-0.1,3.07,1.4,4.08
			c0.27,1.11,0.54,2.22,0.81,3.34c-0.46,1.12-0.13,1.95,0.94,2.5c0.41,2.24,0.82,4.47,1.23,6.71c-0.63,1.09-0.24,1.88,0.75,2.49
			c0.22,1.54,0.35,3.09,0.66,4.6c2.73,13.43,3.79,27.01,3.83,40.68c0.03,7.45-0.03,14.89-0.6,22.32
			c-0.59,7.73-1.43,15.43-2.76,23.08c-0.48,2.75-0.82,5.52-1.22,8.28c-1.2,1.04-1.2,1.04-0.73,2.48c-0.31,1.81-0.64,3.62-0.93,5.43
			c-0.2,1.22-0.51,2.39-1.09,3.48c-0.82,0-1.07,0.98-0.51,2.07c-0.21,1.18-0.42,2.37-0.63,3.55c-1.66,0.93-1.75,2.35-1.24,3.96
			c-0.19,1.14-0.37,2.28-0.56,3.41c-1.62,0.97-1.8,2.41-1.32,4.07c-4.86,17.04-11.38,33.43-19.18,49.33
			c-0.54,1.11-1.31,2.1-1.97,3.15c-1.46,0.56-1.86,1.7-1.69,3.14c0,0-0.21,0.52-0.21,0.51c-1.04,0.37-1.5,1.09-1.33,2.19
			c-0.16,0.6-0.19,1.26-0.49,1.78c-3.11,5.37-6.13,10.8-9.72,15.88c-0.17,0.25-0.47,0.4-0.71,0.6c-0.37-1.54-1.33-2.66-2.6-3.55
			c0.1-1.22,0.48-2.36,0.94-3.5c4.24-10.67,4.62-11.81,7.02-20.69c1.73-1.62,2.21-3.57,1.59-5.83c0.1-0.56,0.2-1.11,0.29-1.67
			c0.8-0.65,1.29-1.38,0.59-2.39c1.71-7.95,2.88-15.96,2.99-24.11c0.02-1.56,0.02-3.12,0.05-4.68c0.17-9.08-0.6-18.08-2.6-26.96
			c0.55-1.09,0.24-1.91-0.79-2.5c-0.22-1.07-0.43-2.14-0.65-3.21c0.45-1.68,0.17-3.13-1.31-4.21c-0.23-1.22-0.32-2.49-0.7-3.66
			c-5.51-17.06-13.93-32.56-25.22-46.5c-6.49-8.01-13.67-15.34-21.59-21.95c-0.45-0.38-1.1-0.52-1.65-0.77
			c-0.31-0.49-0.51-1.12-0.94-1.45c-3.3-2.56-6.63-5.07-9.99-7.56c-0.46-0.34-1.1-0.44-1.65-0.64c-0.36-0.48-0.64-1.09-1.1-1.41
			c-4.05-2.81-8.18-5.51-12.61-7.7c-0.41-0.46-0.74-1.05-1.24-1.36c-3.45-2.09-7.11-3.77-10.85-5.25c-0.84-0.33-1.82-0.33-2.73-0.48
			c-0.25-0.67-0.72-1-1.34-0.79c-0.15,0.05-0.25,0.53-0.22,0.8s0.19,0.63,0.41,0.75c0.51,0.28,1.08,0.44,1.62,0.65
			c0.58,0.2,1.23,0.3,1.72,0.63c2.81,1.91,5.57,3.87,8.35,5.81c0.76,0.53,1.54,1.02,2.5,1.1c3.78,2.98,7.55,5.97,11.35,8.92
			c0.45,0.35,1.07,0.48,1.61,0.71c0.15,0.27,0.24,0.6,0.46,0.8c3.36,3.18,6.73,6.35,10.11,9.51c0.21,0.2,0.56,0.25,0.85,0.37
			c0.51,0.76,0.93,1.61,1.54,2.27c7.16,7.75,13.55,16.08,19.08,25.07c0.32,0.51,0.82,0.91,1.24,1.36c-0.28,0.75-0.02,1.2,0.76,1.36
			c0,0,0.16,0.37,0.16,0.36c-0.16,1.14,0.34,1.87,1.4,2.24c0.19,1.23,0.77,2.29,1.33,3.39c3.45,6.85,6.49,13.86,8.86,21.17
			c1.71,5.26,3,10.6,4.1,16.01c-0.69,1.05-0.31,1.83,0.61,2.49c0.32,3.09,0.58,6.19,0.98,9.28c1.09,8.37,1.07,16.74,0.06,25.12
			c-0.41,3.4-0.72,6.8-1.08,10.2c-0.97,0.63-1.32,1.41-0.64,2.47c-2.99,16.69-9,32.3-16.98,47.2
			c-7.53,14.05-16.76,26.94-27.06,39.08c-1.61,1.9-3.3,3.73-4.91,5.63c-0.38,0.45-0.56,1.08-0.84,1.62
			c-1.03-0.01-1.46,0.41-1.58,1.7l-0.27,0.3c-1.01-0.01-1.4,0.36-1.5,1.58c-0.28,0.13-0.61,0.21-0.82,0.41
			c-3.48,3.45-6.95,6.92-10.41,10.4c-0.2,0.2-0.27,0.55-0.39,0.83c-1.16,0.09-1.59,0.28-1.59,1.53l-0.29,0.27
			c-1.13-0.01-1.45,0.27-1.69,1.59c-1.58,0.44-2.57,1.7-3.71,2.73c-11.61,10.43-23.85,20.08-36.57,29.11
			c-13.22,9.38-26.88,18.1-40.83,26.36c-27.1,16.04-55.16,30.22-83.91,43.05c-25.31,11.3-51.04,21.56-77.29,30.49
			c-1.18,0.4-2.29,0.98-3.44,1.47c-2.38-0.49-4.28,0.44-5.99,1.96l0.11-0.02c-2.3-0.53-4.09,0.46-5.74,1.9l0.11-0.02
			c-2.37-0.54-4.26,0.45-5.98,1.92c-4.23,0.97-8.32,2.41-12.42,3.84c-2.43-0.51-4.4,0.48-6.26,1.86c-1.15,0.3-2.3,0.62-3.46,0.91
			c-1.16,0.29-2.32,0.56-3.49,0.84c-2.46-0.63-4.57,0-6.34,1.8c-2.25,0.69-4.5,1.38-6.75,2.07c-2.44-0.52-4.5,0.35-6.41,1.76
			l-0.55-0.02c0,0-0.54,0.09-0.55,0.09c-2.48-0.63-4.56,0.18-6.45,1.73c-0.35,0.05-0.7,0.1-1.05,0.16c-2.47-0.62-4.61,0.04-6.48,1.7
			c-0.35,0.06-0.7,0.11-1.06,0.15c-1.41-0.46-2.81-0.28-4.19,0.12c-0.85,0.24-1.47,0.81-2.02,1.48l0.01,0.29
			c-1.66-0.42-3.29-0.08-4.87,0.37c-0.48,0.14-0.84,0.65-1.26,0.99c-1.12-0.17-2.14,0.08-3.08,0.7c-0.49-0.3-1-0.37-1.55-0.2
			c-2.89-0.54-5.62-0.37-7.95,1.7c0,0,0.01,0.38,0.02,0.38c-0.45-0.33-0.92-0.37-1.42-0.11c-1.51-0.42-3.01-0.19-4.51,0.08
			c-0.93,0.17-1.65,0.7-2.31,1.35c-0.89,0.08-1.77,0.15-2.67,0.23c-3.24-0.6-6.4-0.07-9.52,0.68c-0.83,0.2-1.57,0.76-2.34,1.15
			c-0.41,0.01-0.82,0.08-1.21,0.23c-1.96-0.54-3.89-0.15-5.84,0.1c-3.3-0.53-6.48-0.19-9.51,1.28c-3.7,0.21-7.41,0.41-11.11,0.62
			c-0.93-0.11-1.86-0.34-2.79-0.3c-10.32,0.39-20.63,0.28-30.95-0.07c-0.92-0.03-1.84,0.26-2.77,0.4c-2.74-0.15-5.48-0.3-8.22-0.45
			c-3.87-1.69-7.91-2.2-12.09-1.68c-0.5-0.15-0.97-0.07-1.39,0.24l-0.04-0.38c-0.71-0.45-1.36-1.08-2.13-1.33
			c-1.89-0.61-3.84-0.95-5.83-0.42c-1.15-0.32-2.3-0.66-3.46-0.95c-1.16-0.29-2.32-0.54-3.49-0.81c-1.82-1.42-3.78-2.42-6.2-1.97
			c-2.53-1.16-5.05-2.32-7.58-3.48c-3.67-1.69-7.11-3.76-10.3-6.24c-4.71-3.66-8.56-8.04-11.03-13.54
			c-0.64-1.43-1.03-2.91-1.25-4.45c0.59-1.07,0.39-1.91-0.71-2.49c-0.71-3.63-0.72-7.26,0.13-10.88c1.09-0.59,1.22-1.44,0.66-2.47
			c0.32-1.52,0.5-3.09,0.99-4.56c2.02-5.93,4.85-11.47,8.22-16.76c2.35-3.69,4.94-7.2,7.55-10.71
			c27.19-36.55,54.39-73.1,81.57-109.66c1.48-1.99,3.25-3.81,4.09-6.23c0.15-0.22,0.41-0.44,0.43-0.67c0.06-0.6-0.32-0.96-0.99-1.04
			c-0.9-0.34-1.52-1.03-2.14-1.72c-6.96-7.68-15.26-13.63-24.26-18.65c-8.14-4.54-16.72-8.15-25.44-11.42
			c-2.03-0.76-4.12-1.33-6.19-1.99c-1.73-1.45-3.62-2.41-5.98-1.91l0.18-0.17c-1.56-2.07-3.69-2.26-6.01-1.8
			c-0.37,0-0.74-0.04-1.11-0.14c-1.65-2-3.82-2.16-6.15-1.74l0.06,0.12c-2.24-1.81-4.79-2.37-7.6-1.93l0.18-0.17
			c-1.66-2.01-3.8-2.25-6.16-1.66c-1.11,0-2.22,0.01-3.32,0.01l-0.59-0.53l-0.79,0.08c-0.48-0.36-0.9-0.88-1.44-1.06
			c-1.47-0.49-3-0.72-4.55-0.31l-0.04-0.28c-1.73-1.86-3.87-2.11-6.21-1.57c-1.07-0.13-2.13-0.33-3.19,0.04l0.04-0.39
			c-1.75-1.89-3.92-2.04-6.25-1.52c-0.39-0.05-0.76-0.12-1.14-0.23c-2.06-1.46-4.26-2.2-6.79-1.43c-1.48-0.19-2.95-0.38-4.43-0.57
			c-1.99-1.78-4.29-2.03-6.77-1.38c-1.56,0.03-3.11-0.54-4.67-0.05l0.01-0.49c-0.81-0.94-1.84-1.44-3.07-1.61
			c-1.2-0.17-2.37-0.13-3.52,0.26c-1.5-0.1-3.01-0.2-4.51-0.3c-3.66-1.99-7.6-2.24-11.64-1.86l0.18-0.18
			c-1.11-1.28-2.48-1.72-4.13-1.27c-2.43-0.39-4.85-0.9-7.33-0.37l0.17-0.18c-1.17-1.16-2.51-1.71-4.17-1.22
			c-2.32-0.6-4.67-0.81-7.06-0.67c-1.48-0.42-2.94-0.91-4.44-1.23c-2.4-0.51-4.82-1-7.3-0.43c-0.5-0.25-0.98-0.21-1.42,0.14
			l-0.01-0.28c-2.95-1.89-6.16-2.33-9.56-1.76l0.15-0.09c-1.42-1.1-3.07-1.64-4.81-1.85c-1.44-0.17-2.89-0.22-4.33-0.33
			c-1.49-0.46-2.95-1-4.46-1.34c-1.81-0.42-3.66-0.76-5.53-0.23c-0.89-0.08-1.77-0.16-2.67-0.25c-0.44-0.37-0.83-0.9-1.33-1.09
			c-1.65-0.63-3.37-0.97-5.14-0.52l0.19-0.18c-1.25-1.59-2.86-1.93-4.73-1.36c-0.85-0.15-1.7-0.3-2.56-0.45
			c-1.75-1.91-3.92-2.31-6.35-1.74c-0.37,0.01-0.73-0.03-1.09-0.13c-1.65-1.89-3.76-2.23-6.09-1.8l0.05,0.12
			c-1.65-1.45-3.47-2.37-5.75-1.87l0.09,0.02c-1.7-1.52-3.59-2.46-5.95-2.01c0,0-0.78-0.22-0.78-0.23c-1.06-1.76-2.7-2.01-4.53-1.75
			l0.13,0.04c-1-1.57-2.43-2.11-4.23-1.77c-2.54-1.19-5.06-2.41-7.62-3.58c-11.69-5.32-22.73-11.73-33.09-19.32
			c-23.17-16.97-40.63-38.61-52.79-64.57c-2.12-4.52-4.1-9.09-5.77-13.8c0.47-1.7-0.05-3.01-1.54-3.95c-0.15-0.53-0.3-1.07-0.44-1.6
			c0.49-1.69-0.03-3.02-1.45-4.02c-0.12-0.55-0.25-1.09-0.4-1.63c0.49-1.68,0.13-3.07-1.39-4.06c-0.1-0.56-0.26-1.1-0.5-1.62
			c0.45-1.69,0.06-3.1-1.36-4.17c-0.15-1.74-0.35-3.47-0.99-5.11c0.5-1.09,0.14-1.87-0.87-2.42c-0.33-2.26-0.66-4.51-0.99-6.77
			c0.5-1.49,0.5-1.49-0.74-2.52c-0.99-7.08-2.33-14.11-3.11-21.23c-0.44-4.02-0.9-8.03-1.17-12.07
			c-0.82-12.73-1.67-25.46-1.22-38.23c0.32-9.01,0.79-18.02,1.31-27.03c0.61-10.56,1.82-21.06,2.93-31.58
			c0.89-8.35,2.54-16.6,2.97-25c0.88-0.65,1.2-1.42,0.53-2.41c0.28-1.45,0.64-2.88,0.83-4.34c0.35-2.64,0.59-5.29,0.88-7.93
			c1.02-0.68,1.15-1.59,0.67-2.65c2.03-11.82,3.93-23.67,6.33-35.43c0.83-0.75,1.25-1.57,0.46-2.61c0.48-2.86,0.95-5.73,1.43-8.59
			c0.77-0.66,1.21-1.39,0.5-2.37c1.01-2.86,1.05-5.9,1.66-8.83c1.2-1,1.2-1,0.73-2.47c0.94-6.49,2.37-12.89,3.59-19.32
			c1.11-5.83,2.16-11.66,3.24-17.49c1.2-1.05,1.2-1.05,0.66-2.54c1.06-6.07,2.12-12.15,3.17-18.23c1.25-1.01,1.25-1.01,0.73-2.56
			c0.4-2.87,0.8-5.73,1.21-8.6c1.11-0.54,1.32-1.37,0.79-2.44c0.26-1.66,0.51-3.32,0.77-4.98c1.05-0.52,1.42-1.33,1.01-2.45
			c0.62-1.73,1.27-3.44,2.18-5.06c1.38-2.45,3.1-4.55,5.61-5.91c2.3,0.34,4.12-0.71,5.85-2.03l-0.06,0.1
			c1.21,0.32,2.44,0.35,3.69,0.3c4.35-0.15,8.7-0.34,13.05-0.35c8.39-0.03,16.78,0.05,25.17,0.1c1.86,0.01,3.73,0.15,5.56-0.35
			c1.74,0.21,3.48,0.42,5.22,0.63c0.9,0.86,1.94,1.42,3.21,1.48c3.03,0.14,6.05,0.12,9.06-0.27c0.57-0.12,1.15-0.38,1.71-0.32
			c3.48,0.36,6.96,0.79,10.44,1.2c0.71,0.84,1.62,1.12,2.68,0.99c1.14,0.03,2.29,0.08,3.43,0.08s2.28-0.04,3.42-0.06
			c1.85,0.31,3.69,0.75,5.56,0.08l-0.04,0.42c0.95,1.66,2.49,1.69,4.11,1.47c1.49,0.14,2.99,0.36,4.49,0.4
			c0.88,0.03,1.76-0.21,2.65-0.33l0.02,0.34c0.66,1.07,1.67,1.41,2.87,1.35c1.12-0.22,2.21,0.01,3.29,0.23
			c1.1,0.23,2.19,0.29,3.27-0.14l-0.04,0.42c0.92,1.57,2.4,1.7,3.99,1.53c1.17,0.23,2.33,0.45,3.5,0.68
			c1.27,1.41,2.89,1.32,4.55,1.08c1.06-0.12,2.01,0.19,2.92,0.68c0.99,1.08,2.26,1.51,3.69,1.45c0.82-0.03,1.64-0.14,2.46-0.21
			c0.55-0.37,0.97-0.26,1.28,0.33c0.96,1.37,2.33,1.85,3.94,1.78c0.61-0.03,1.21-0.08,1.82-0.12c1.23,0.14,2.53,0.1,3.69,0.46
			c32.4,10.14,62.67,24.68,90.57,44.07c12.07,8.39,23.54,17.54,34.57,27.27c19.04,16.8,36.14,35.42,52.18,55.05
			c13.85,16.94,26.78,34.57,39.43,52.41c9.21,12.99,18.34,26.05,27.59,39.01c7.26,10.17,14.71,20.2,22.57,29.92
			c7.27,9,14.85,17.73,23.13,25.82c4.48,4.37,9.13,8.54,14.04,12.41c8.12,6.42,16.8,11.91,26.36,15.97
			c1.15,0.49,2.24,1.11,3.36,1.66c1.23,1.4,2.64,2.29,4.61,1.73c0.36-0.03,0.72-0.01,1.08,0.07c0.8,0.49,1.55,1.05,2.39,1.44
			c1.14,0.54,2.36,0.75,3.61,0.33l-0.17,0.14c1.71,1.67,3.77,2.09,6.06,1.71c1.16,0.24,2.31,0.48,3.47,0.73
			c0.62,0.83,1.47,1.15,2.49,1.06c2.48,0.08,4.95,0.19,7.43,0.25c3.72,0.09,7.44,0.12,11.14-0.32c1.28-0.15,2.33-0.74,3.19-1.69
			c0.28-0.55,0.63-1.08,0.83-1.65c0.2-0.58,0.35-1.2,0.38-1.82c0.57-11.16,2.59-22.19,3.14-33.36
			C1076.92,451.66,1077.12,450.81,1076.54,449.77z"/>
		<path class="st0" d="M595.31,164.47c-1.83,0.49-3.7,0.36-5.56,0.35c-8.39-0.04-16.78-0.12-25.17-0.1
			c-4.35,0.01-8.7,0.2-13.05,0.35c-1.25,0.04-2.48,0.02-3.69-0.3c1.04-0.69,2.17-1.21,3.41-1.35c1.84-0.21,3.69-0.46,5.53-0.48
			c12.67-0.14,25.33-0.3,38,0.22C594.93,163.6,595.11,164.04,595.31,164.47z"/>
		<path class="st0" d="M1320,496.45c0.56,0.21,1.2,0.3,1.65,0.64c3.36,2.48,6.69,5,9.99,7.56c0.43,0.33,0.63,0.96,0.94,1.45
			c-0.52,0.12-1.05,0.22-1.57,0.35c-0.82,0.21-1.44,0.67-1.73,1.49c-0.17,0.5-0.28,1.03-0.42,1.55c-0.29-0.12-0.64-0.17-0.85-0.37
			c-3.38-3.16-6.75-6.33-10.11-9.51c-0.21-0.2-0.31-0.53-0.46-0.8C1318.01,497.71,1318.95,497.01,1320,496.45z"/>
		<path class="st0" d="M862.61,911.7c0.92-0.14,1.85-0.44,2.77-0.4c10.32,0.36,20.63,0.46,30.95,0.07c0.92-0.03,1.86,0.2,2.79,0.3
			c-0.15,0.43-0.29,0.86-0.41,1.3c-1.81,0.23-3.62,0.45-5.43,0.68c-7.47-0.33-14.94-0.32-22.42,0c-2.45-0.56-4.95-0.61-7.44-0.59
			C863.19,912.58,862.92,912.13,862.61,911.7z"/>
		<path class="st1" d="M1373.65,678.74c1.27,0.89,2.22,2.01,2.6,3.55c-0.16,0.57-0.18,1.22-0.49,1.7c-1.76,2.76-3.45,5.59-5.67,8.02
			c-1.1-0.35-1.55-1.28-2.01-2.21c1.21-3.69,3.1-7.08,4.87-10.51C1373.06,679.04,1373.41,678.91,1373.65,678.74z"/>
		<path class="st1" d="M870.85,913.66c7.47-0.32,14.94-0.33,22.42,0c-0.7,0.62-1.44,1.29-2.39,1.34c-5.88,0.33-11.76,0.33-17.64,0
			C872.3,914.94,871.56,914.27,870.85,913.66z"/>
		<path class="st1" d="M1071.59,489.15c-0.86,0.95-1.91,1.53-3.19,1.69c-3.7,0.44-7.42,0.41-11.14,0.32
			c-2.48-0.06-4.95-0.16-7.43-0.24c-0.2-0.47-0.49-0.88-0.87-1.22l0.21-0.77C1056.63,489.57,1064.11,489.24,1071.59,489.15z"/>
		<path class="st1" d="M1368.07,689.79c0.45,0.93,0.91,1.86,2.01,2.21c-0.2,0.55-0.29,1.18-0.62,1.65
			c-1.74,2.45-3.53,4.86-5.31,7.29c-0.89-0.19-1.23-0.97-1.73-1.58c1.44-2.76,2.85-5.53,4.34-8.27
			C1367.05,690.57,1367.63,690.22,1368.07,689.79z"/>
		<path class="st1" d="M624.95,167.19c-3.48-0.41-6.96-0.84-10.44-1.2c-0.55-0.06-1.14,0.21-1.71,0.32
			c-0.46-0.5-0.92-1.01-1.38-1.51c0.6-0.13,1.21-0.39,1.8-0.37c3.09,0.1,6.17,0.25,9.26,0.45c1.55,0.1,3.04,0.54,4.39,1.34
			l-0.13,0.79C626.13,166.96,625.53,167.02,624.95,167.19z"/>
		<path class="st1" d="M1244.12,192.94c0.64-0.25,1.38-0.16,1.54,0.44c0.16,0.62-0.44,0.8-1.13,0.86c-2.35,0.21-4.68,0.59-7.03,0.79
			c-0.86,0.07-1.74-0.18-2.61-0.29c1.23-1.12,2.81-1.4,4.33-1.82C1240.85,192.93,1242.48,192.93,1244.12,192.94z"/>
		<path class="st1" d="M595.31,164.47c-0.2-0.43-0.38-0.87-0.54-1.32c1.47-0.46,2.97-0.41,4.48-0.35c2.71,0.11,5.42,0.21,8.13,0.32
			c0.25,0.49,0.51,0.98,0.78,1.46c-1.1,0.38-2.23,0.4-3.38,0.39c-1.42-0.01-2.84,0.08-4.27,0.13
			C598.79,164.89,597.05,164.68,595.31,164.47z"/>
		<path class="st1" d="M1328.89,357.73c-0.85,0.1-1.63-0.13-2.31-0.6c-0.92-0.63-1.94-1.01-3.02-1.23c0.01-0.98,1.04-1.08,1.48-1.69
			c2,0.03,4,0.05,6,0.08c1.14,0.02,2.28,0.04,3.42,0.07c-0.63,1.02-1.56,1.58-2.73,1.76
			C1330.58,356.29,1329.6,356.78,1328.89,357.73z"/>
		<path class="st1" d="M898.69,912.98c0.13-0.44,0.26-0.87,0.41-1.3c3.7-0.21,7.41-0.41,11.11-0.62l0.05,0.75
			c-0.37,0.33-0.65,0.71-0.84,1.16c-2.09,0.09-4.19,0.17-6.28,0.28C901.65,913.33,900.16,913.4,898.69,912.98z"/>
		<path class="st1" d="M728.07,654.41c4.04-0.38,7.98-0.13,11.63,1.86c-0.68,0.23-1.35,0.47-2.03,0.7
			c-1.81-0.27-3.62-0.54-5.43-0.82C730.71,655.92,729.29,655.4,728.07,654.41z"/>
		<path class="st1" d="M1334.46,354.35c-1.14-0.02-2.28-0.05-3.42-0.07c-2-0.03-4-0.05-6-0.08c-0.04-0.45-0.18-0.87-0.41-1.26
			c3.9-0.67,7.82-0.91,11.75-0.39C1336.05,353.48,1335.05,353.69,1334.46,354.35z"/>
		<path class="st1" d="M600.53,165.1c1.42-0.05,2.85-0.14,4.27-0.13c1.15,0.01,2.28-0.01,3.37-0.39l0.85,0.1l0.8-0.3
			c0.48,0.35,1.01,0.49,1.59,0.42c0.46,0.5,0.92,1.01,1.38,1.51c-3.01,0.39-6.03,0.41-9.06,0.27
			C602.47,166.52,601.43,165.96,600.53,165.1z"/>
		<path class="st1" d="M862.61,911.7c0.31,0.43,0.58,0.89,0.81,1.36c-3.01,0.67-6.03,0.34-9.02-0.03c-0.85-0.11-1.64-0.72-2.45-1.1
			c0.82-0.23,1.63-0.45,2.45-0.68C857.13,911.4,859.87,911.55,862.61,911.7z"/>
		<path d="M854.39,911.25c-0.82,0.23-1.63,0.45-2.45,0.68c-2.79-0.28-5.58-0.55-8.38-0.83c-0.42-0.51-0.84-1.02-1.26-1.53
			C846.48,909.05,850.52,909.55,854.39,911.25z"/>
		<path d="M926.78,909.45c0.78-0.39,1.52-0.95,2.35-1.15c3.13-0.75,6.29-1.29,9.52-0.68c-1.59,1-3.39,1.39-5.2,1.74
			c-1.51,0.29-3.02,0.52-4.54,0.77C928.2,909.91,927.49,909.68,926.78,909.45z"/>
		<path class="st1" d="M1362.43,699.36c0.49,0.62,0.84,1.4,1.73,1.58c-0.48,1.85-1.67,3.19-3.1,4.37c-0.59,0.49-1.11,0.55-1.5,0.09
			c-0.17-0.2-0.36-0.56-0.3-0.77C1359.86,702.6,1360.47,700.57,1362.43,699.36z"/>
		<path class="st1" d="M694,648.86c2.47-0.57,4.89-0.09,7.3,0.43c1.5,0.32,2.96,0.82,4.44,1.23c-0.21,0.24-0.42,0.48-0.62,0.71
			c-0.42,0.04-0.84,0.12-1.25,0.22c-2.94-0.49-5.88-1.04-8.89-1.03C694.67,649.89,694.35,649.37,694,648.86z"/>
		<path class="st1" d="M910.22,911.06c3.03-1.47,6.21-1.81,9.51-1.28c-0.13,0.44-0.25,0.88-0.37,1.33
			c-1.82,0.27-3.63,0.54-5.45,0.81c-1.22-0.04-2.43-0.07-3.65-0.11L910.22,911.06z"/>
		<path d="M664.01,643.12c1.87-0.54,3.71-0.19,5.53,0.23c1.51,0.35,2.98,0.89,4.46,1.34c-0.21,0.24-0.41,0.47-0.62,0.71
			c-0.49,0.08-0.97,0.18-1.45,0.3c-1.21-0.26-2.43-0.52-3.64-0.79C666.75,644.56,665.31,644.01,664.01,643.12z"/>
		<path d="M674,644.69c1.45,0.1,2.9,0.16,4.33,0.33c1.75,0.21,3.4,0.75,4.81,1.85c-1.1,0.4-2.21,0.36-3.35,0.23
			c-1.68-0.2-3.32-0.82-5.06-0.53c-0.27-0.6-0.72-0.99-1.36-1.16C673.58,645.16,673.79,644.93,674,644.69z"/>
		<path class="st1" d="M683,646.96c3.4-0.57,6.62-0.14,9.56,1.76C689.13,649.49,685.94,648.9,683,646.96z"/>
		<path class="st1" d="M1348.84,279.54c-1.49-1.03-1.64-2.48-1.24-4.08c0.21-0.84,1.23-1.41,2.2-1.11c0.56,0.17,1.04,0.61,1.55,0.92
			C1349.27,275.98,1349.44,277.99,1348.84,279.54z"/>
		<path class="st1" d="M1232,196.31c-1.11-0.24-2.18,0.01-3.25,0.26c-1.08,0.26-2.17,0.34-3.24-0.04c2.22-2.29,4.96-2.3,7.82-1.81
			C1232.88,195.26,1232.44,195.79,1232,196.31z"/>
		<path class="st1" d="M716.79,652.59c2.48-0.54,4.9-0.02,7.33,0.37c0.08,0.45,0.19,0.89,0.33,1.32
			C721.7,654.61,719.04,654.51,716.79,652.59z"/>
		<path class="st1" d="M705.74,650.52c2.39-0.13,4.74,0.07,7.06,0.67c0.07,0.44,0.18,0.86,0.32,1.28c-2.31,0.43-4.58-0.29-6.88-0.2
			c-0.25-0.49-0.62-0.84-1.13-1.05C705.32,650.99,705.53,650.76,705.74,650.52z"/>
		<path class="st0" d="M737.67,656.97c0.68-0.23,1.35-0.47,2.03-0.7c1.51,0.1,3.01,0.2,4.52,0.3c0.25,0.54,0.53,1.06,0.87,1.55
			c-1.43,0.01-2.86,0.03-4.28,0.04C739.6,658.17,738.59,657.71,737.67,656.97z"/>
		<path class="st0" d="M762.23,659.84c1.48,0.19,2.95,0.38,4.43,0.58c0.12,0.58,0.35,1.09,0.71,1.56c-1.15-0.01-2.3-0.02-3.45-0.01
			c-1.49,0.01-2.83-0.37-3.91-1.46C760.75,660.28,761.49,660.06,762.23,659.84z"/>
		<path d="M949.53,905.69c2.33-2.07,5.07-2.24,7.95-1.7c-0.39,0.52-0.78,1.03-1.17,1.55c-1.42,0.14-2.84,0.34-4.26,0.4
			C951.22,905.97,950.38,905.78,949.53,905.69z"/>
		<path d="M832.91,907.68c1.99-0.52,3.94-0.19,5.83,0.42c0.77,0.25,1.42,0.87,2.13,1.33C837.93,910.15,835.32,909.39,832.91,907.68z
			"/>
		<path class="st1" d="M660.69,172.03c-1.07,0.42-2.16,0.36-3.27,0.14c-1.09-0.23-2.17-0.45-3.29-0.23
			c-0.43-0.53-0.86-1.06-1.3-1.59c1.87-0.58,3.72-0.18,5.55,0.2C659.31,170.73,660.07,171.31,660.69,172.03z"/>
		<path class="st1" d="M806.91,669.43c2.81-0.44,5.36,0.12,7.6,1.93C811.68,671.88,809.08,671.49,806.91,669.43z"/>
		<path class="st1" d="M634.48,168.2c-1.14,0.02-2.28,0.06-3.42,0.06c-1.14,0-2.29-0.05-3.44-0.08c-0.2-0.47-0.49-0.86-0.88-1.19
			l0.13-0.79c2.43,0.23,4.86,0.45,7.29,0.68C634.27,167.33,634.38,167.76,634.48,168.2z"/>
		<path class="st1" d="M651.25,170.24c-0.88,0.12-1.77,0.36-2.65,0.33c-1.5-0.05-2.99-0.26-4.49-0.4c-0.25-0.52-0.53-1.01-0.85-1.49
			c2.28-0.62,4.48-0.16,6.62,0.59C650.39,169.45,650.8,169.91,651.25,170.24z"/>
		<path class="st1" d="M821.71,673.13c2.32-0.46,4.45-0.27,6.01,1.8C825.38,675.47,823.49,674.47,821.71,673.13z"/>
		<path class="st1" d="M827.55,675.09c2.35-0.5,4.24,0.45,5.98,1.91C831.13,677.63,829.15,676.93,827.55,675.09z"/>
		<path class="st1" d="M750.79,658.41c1.56-0.49,3.11,0.07,4.67,0.05c0.22,0.55,0.5,1.07,0.84,1.56c-0.87,0-1.74,0.04-2.61,0.01
			C752.47,659.98,751.49,659.44,750.79,658.41z"/>
		<path class="st1" d="M1222.74,198.26c-0.78,0.08-1.55,0.2-2.33,0.22c-0.77,0.02-1.54-0.05-2.31-0.09
			c1.51-1.93,3.46-2.37,5.74-1.68C1223.47,197.23,1223.1,197.74,1222.74,198.26z"/>
		<path d="M1352.85,275.49c2.43-0.48,4.69-0.32,6.49,1.66C1356.87,277.83,1354.8,276.89,1352.85,275.49z"/>
		<path class="st1" d="M745.08,658.12c-0.33-0.49-0.62-1-0.87-1.55c1.15-0.39,2.32-0.42,3.52-0.26c1.23,0.17,2.26,0.67,3.07,1.61
			c-0.81,0.09-1.62,0.25-2.43,0.27C747.28,658.22,746.18,658.15,745.08,658.12z"/>
		<path class="st1" d="M1244.12,192.94c-1.64-0.01-3.27-0.01-4.9-0.02c-0.25-0.65-0.49-1.3-0.75-1.95c1.48-0.45,2.95-0.2,4.42,0.09
			C1243.86,191.25,1243.9,191.31,1244.12,192.94z"/>
		<path class="st1" d="M634.48,168.2c-0.11-0.44-0.21-0.87-0.32-1.31c0.9-0.06,1.81-0.2,2.71-0.15c1.25,0.06,2.36,0.53,3.17,1.54
			C638.18,168.95,636.33,168.51,634.48,168.2z"/>
		<path class="st1" d="M767.37,661.97c-0.36-0.46-0.59-0.98-0.71-1.56c2.52-0.77,4.73-0.03,6.78,1.43
			c-0.69,0.21-1.37,0.42-2.06,0.63C770.08,662.06,768.75,661.86,767.37,661.97z"/>
		<path d="M774.59,662.08c2.33-0.52,4.5-0.37,6.25,1.52c-0.88,0.08-1.76,0.22-2.64,0.22c-0.89,0-1.79-0.14-2.68-0.22
			C775.25,663.06,774.94,662.56,774.59,662.08z"/>
		<path class="st1" d="M1383.19,648.72c0.63,2.26,0.14,4.21-1.59,5.83C1380.89,652.27,1381.65,650.39,1383.19,648.72z"/>
		<path class="st1" d="M919.37,911.1c0.11-0.44,0.23-0.89,0.37-1.33c1.94-0.25,3.88-0.64,5.83-0.1c-0.32,0.49-0.61,0.99-0.89,1.5
			C922.91,911.15,921.13,911.64,919.37,911.1z"/>
		<path d="M783.99,663.94c2.34-0.54,4.48-0.28,6.21,1.57c-0.87,0.07-1.75,0.21-2.62,0.2c-0.88-0.01-1.77-0.16-2.65-0.25
			C784.66,664.93,784.35,664.42,783.99,663.94z"/>
		<path class="st1" d="M1218.09,198.46c-1.79,1.31-3.67,2.36-6.02,1.85C1213.65,198.32,1215.72,197.91,1218.09,198.46z"/>
		<path class="st1" d="M790.24,665.79c1.55-0.41,3.08-0.18,4.55,0.31c0.54,0.18,0.96,0.7,1.44,1.06c-0.81,0.13-1.62,0.37-2.44,0.38
			C792.33,667.58,791.09,667.04,790.24,665.79z"/>
		<path class="st1" d="M668.14,174.66c-1.17-0.23-2.33-0.45-3.5-0.68c-0.24-0.54-0.52-1.05-0.84-1.54c2.46-0.74,4.52,0.14,6.43,1.61
			C669.54,174.25,668.84,174.46,668.14,174.66z"/>
		<path class="st1" d="M654.86,641.26c1.78-0.45,3.49-0.11,5.14,0.52c0.51,0.19,0.89,0.72,1.33,1.09
			C658.87,643.61,656.75,642.89,654.86,641.26z"/>
		<path class="st1" d="M675.62,176.42c-0.91-0.49-1.87-0.8-2.93-0.68c-0.28-0.55-0.61-1.06-1.01-1.53c2.34-0.72,4.31-0.11,5.96,1.64
			C676.96,176.04,676.29,176.23,675.62,176.42z"/>
		<path class="st1" d="M675.62,176.42c0.67-0.19,1.35-0.38,2.03-0.57c0.91,0.23,1.81,0.44,2.72,0.68c0.61,0.16,1.08,0.56,1.41,1.13
			c-0.82,0.07-1.64,0.18-2.46,0.21C677.87,177.93,676.61,177.5,675.62,176.42z"/>
		<path class="st1" d="M941.31,907.39c0.66-0.64,1.37-1.18,2.31-1.35c1.5-0.28,3-0.5,4.51-0.08c-0.3,0.5-0.55,1.03-0.77,1.57
			c-0.87,0.05-1.74,0.08-2.61,0.17C943.58,907.8,942.44,907.76,941.31,907.39z"/>
		<path class="st1" d="M819.77,903.94c2.42-0.45,4.37,0.55,6.2,1.97C823.49,906.56,821.46,905.79,819.77,903.94z"/>
		<path class="st1" d="M962.12,903.49c0.42-0.34,0.79-0.85,1.26-0.99c1.59-0.45,3.21-0.79,4.87-0.37c-0.88,1.27-2.14,1.83-3.64,1.78
			C963.78,903.88,962.95,903.63,962.12,903.49z"/>
		<path d="M968.24,901.84c0.55-0.67,1.17-1.24,2.02-1.48c1.38-0.4,2.78-0.58,4.19-0.12c-0.98,0.51-1.93,1.09-2.95,1.52
			C970.45,902.22,969.34,902.22,968.24,901.84z"/>
		<path d="M975.51,900.09c1.87-1.66,4-2.32,6.48-1.7C980.09,899.92,978.01,900.81,975.51,900.09z"/>
		<path class="st1" d="M641.42,637.53c2.43-0.57,4.59-0.17,6.35,1.74C645.34,639.85,643.3,639,641.42,637.53z"/>
		<path d="M983.04,898.23c1.88-1.55,3.97-2.36,6.45-1.73C987.6,898.06,985.54,898.98,983.04,898.23z"/>
		<path class="st1" d="M990.58,896.43c1.91-1.4,3.96-2.28,6.41-1.76C995.21,896.55,993.07,897.12,990.58,896.43z"/>
		<path d="M634.24,635.6c2.34-0.43,4.44-0.08,6.09,1.8C637.94,638.01,635.99,637.14,634.24,635.6z"/>
		<path class="st1" d="M1003.74,892.61c1.77-1.79,3.88-2.43,6.34-1.8C1008.22,892.31,1006.18,893.16,1003.74,892.61z"/>
		<path class="st1" d="M628.54,633.86c2.28-0.5,4.1,0.41,5.75,1.87C631.98,636.31,630.05,635.73,628.54,633.86z"/>
		<path class="st1" d="M1037.98,487.29c-1.25,0.42-2.47,0.21-3.61-0.33c-0.84-0.39-1.59-0.96-2.39-1.44
			C1034.29,485.05,1036.39,485.32,1037.98,487.29z"/>
		<path class="st1" d="M1043.87,489.13c-2.29,0.38-4.35-0.04-6.06-1.71c1.9-0.43,3.75,0.03,5.6,0.31
			C1043.53,488.21,1043.68,488.68,1043.87,489.13z"/>
		<path class="st1" d="M1043.87,489.13c-0.18-0.46-0.33-0.92-0.45-1.4c2.11-0.56,3.98,0.05,5.74,1.2c0,0-0.21,0.77-0.2,0.77
			c-0.55-0.08-1.09-0.02-1.62,0.16C1046.18,489.62,1045.02,489.38,1043.87,489.13z"/>
		<path class="st1" d="M1017.03,889.06c1.86-1.38,3.83-2.37,6.26-1.86C1021.61,889.17,1019.45,889.56,1017.03,889.06z"/>
		<path class="st1" d="M1035.71,883.36c1.73-1.47,3.61-2.46,5.98-1.92C1040.04,883.15,1038.12,884.01,1035.71,883.36z"/>
		<path class="st1" d="M1041.58,881.46c1.65-1.44,3.44-2.43,5.74-1.9C1045.76,881.27,1043.93,882.14,1041.58,881.46z"/>
		<path class="st1" d="M547.9,164.67c-1.72,1.32-3.54,2.36-5.85,2.03C543.49,164.57,545.54,164.17,547.9,164.67z"/>
		<path class="st1" d="M1047.21,879.59c1.71-1.52,3.61-2.46,5.99-1.96C1051.52,879.23,1049.66,880.3,1047.21,879.59z"/>
		<path class="st1" d="M688.8,179.66c-0.61,0.04-1.21,0.1-1.82,0.12c-1.61,0.07-2.98-0.41-3.94-1.78
			C685.19,177.77,687.23,177.89,688.8,179.66z"/>
		<path class="st1" d="M622.68,631.87c2.36-0.45,4.26,0.49,5.95,2.01C626.2,634.53,624.32,633.56,622.68,631.87z"/>
		<path class="st1" d="M756.31,660.01c-0.34-0.49-0.62-1-0.84-1.56c2.48-0.64,4.78-0.4,6.77,1.38c-0.74,0.22-1.48,0.44-2.22,0.65
			C758.81,660.08,757.58,659.86,756.31,660.01z"/>
		<path class="st1" d="M800.92,667.6c2.36-0.58,4.5-0.35,6.16,1.66c-0.82,0.04-1.64,0.12-2.45,0.09c-0.83-0.03-1.65-0.17-2.47-0.26
			C801.75,668.59,801.33,668.1,800.92,667.6z"/>
		<path d="M814.45,671.24c2.33-0.42,4.5-0.26,6.15,1.74C818.22,673.6,816.27,672.65,814.45,671.24z"/>
		<path class="st1" d="M1310.24,155.3c-2.33,0.62-4.23-0.27-5.95-1.73C1306.64,152.84,1308.59,153.55,1310.24,155.3z"/>
		<path class="st1" d="M1302.96,153.37c-2.46,0.67-4.47-0.3-6.34-1.76C1299.03,151.1,1301.2,151.5,1302.96,153.37z"/>
		<path class="st1" d="M1282.27,147.81c-2.44,0.58-4.48-0.28-6.33-1.79C1278.39,145.41,1280.48,146.07,1282.27,147.81z"/>
		<path class="st1" d="M508.79,511.65c1.52,0.99,1.89,2.38,1.39,4.06C508.72,514.7,508.18,513.37,508.79,511.65z"/>
		<path class="st1" d="M1388.71,661.32c-0.17-1.44,0.23-2.58,1.69-3.14C1390.65,659.67,1389.73,660.52,1388.71,661.32z"/>
		<path class="st1" d="M1292.43,151.31c-0.29,0.04-0.59,0.07-0.88,0.11c-1.58,0.21-2.91-0.18-3.83-1.57c0.87,0.02,1.75,0,2.61,0.09
			C1291.23,150.02,1291.91,150.56,1292.43,151.31z"/>
		<path class="st1" d="M910.27,911.81c1.22,0.04,2.43,0.07,3.65,0.11c-1.23,1.45-2.83,1.38-4.49,1.06
			C909.63,912.52,909.91,912.13,910.27,911.81z"/>
		<path class="st1" d="M1413.43,598.23c-0.51-1.61-0.42-3.03,1.24-3.96C1415.26,595.9,1414.57,597.13,1413.43,598.23z"/>
		<path class="st1" d="M1411.55,605.7c-0.48-1.65-0.3-3.09,1.32-4.07C1413.53,603.35,1412.81,604.62,1411.55,605.7z"/>
		<path class="st1" d="M512.47,522.95c1.49,0.94,2.01,2.25,1.54,3.95C512.65,525.92,511.96,524.67,512.47,522.95z"/>
		<path class="st1" d="M510.58,517.33c1.42,1,1.94,2.33,1.45,4.02C510.53,520.38,510,519.06,510.58,517.33z"/>
		<path class="st1" d="M800.92,667.6c0.41,0.5,0.82,1,1.24,1.49c-0.28,0.04-0.57,0.07-0.85,0.11c-1.56,0.22-2.81-0.28-3.71-1.59
			C798.71,667.61,799.81,667.6,800.92,667.6z"/>
		<path class="st1" d="M506.93,505.85c1.43,1.07,1.81,2.49,1.36,4.17C506.82,508.97,506.17,507.64,506.93,505.85z"/>
		<path class="st1" d="M1030.9,485.45c-1.96,0.56-3.38-0.33-4.61-1.73C1028.17,483.39,1029.73,483.9,1030.9,485.45z"/>
		<path class="st1" d="M1414.9,463.26c-1.5-1-1.92-2.38-1.4-4.08C1414.93,460.21,1415.53,461.52,1414.9,463.26z"/>
		<path class="st1" d="M650.32,639.72c1.87-0.56,3.48-0.23,4.73,1.36C653.2,641.58,651.56,641.34,650.32,639.72z"/>
		<path class="st1" d="M671.68,174.21c0.4,0.47,0.74,0.98,1.01,1.53c-1.66,0.24-3.28,0.34-4.55-1.08c0.7-0.2,1.39-0.41,2.09-0.61
			C670.71,174.15,671.19,174.2,671.68,174.21z"/>
		<path class="st1" d="M1371.56,206.31c-1.57-1.07-1.71-2.54-1.18-4.2C1371.82,203.22,1372.29,204.6,1371.56,206.31z"/>
		<path class="st1" d="M643.26,168.68c0.32,0.47,0.6,0.97,0.85,1.49c-1.62,0.22-3.16,0.19-4.11-1.47
			C641.09,168.31,642.18,168.51,643.26,168.68z"/>
		<path class="st1" d="M1095.87,337.25c0.53,1.64,0.33,3.05-1.25,4.03C1094.02,339.62,1094.59,338.33,1095.87,337.25z"/>
		<path class="st1" d="M1097.43,331.52c0.55,1.67-0.23,2.89-1.35,4C1095.57,333.86,1095.72,332.43,1097.43,331.52z"/>
		<path class="st1" d="M617.37,629.89c1.83-0.25,3.47,0,4.53,1.75C619.98,632.13,618.59,631.24,617.37,629.89z"/>
		<path class="st1" d="M1394.06,269.99c-1.67-0.85-1.88-2.24-1.43-3.88C1393.75,267.17,1394.56,268.34,1394.06,269.99z"/>
		<path class="st1" d="M783.99,663.94c0.36,0.48,0.67,0.98,0.94,1.52c-1.63,0.21-3.18,0.19-4.14-1.48
			C781.86,663.62,782.92,663.81,783.99,663.94z"/>
		<path class="st1" d="M1099.24,325.86c0.49,1.64-0.41,2.79-1.4,3.9C1097.37,328.13,1097.56,326.73,1099.24,325.86z"/>
		<path class="st1" d="M1101.48,320.21c0.63,1.79-0.18,3.04-1.55,4.07C1099.5,322.57,1099.95,321.18,1101.48,320.21z"/>
		<path class="st1" d="M774.59,662.08c0.35,0.48,0.66,0.98,0.92,1.52c-1.54,0.23-2.99,0.15-4.12-1.13c0.69-0.21,1.37-0.42,2.06-0.63
			C773.82,661.96,774.2,662.03,774.59,662.08z"/>
		<path class="st1" d="M713.12,652.48c-0.14-0.42-0.25-0.85-0.32-1.28c1.65-0.49,3,0.07,4.16,1.22
			C715.69,652.92,714.41,652.71,713.12,652.48z"/>
		<path class="st1" d="M924.68,911.18c0.28-0.51,0.57-1.01,0.89-1.5c0.39-0.14,0.8-0.22,1.21-0.23c0.71,0.23,1.42,0.46,2.13,0.69
			C927.73,911.41,926.24,911.45,924.68,911.18z"/>
		<path class="st1" d="M724.45,654.28c-0.14-0.43-0.24-0.88-0.33-1.32c1.65-0.45,3.02-0.01,4.13,1.27
			C726.99,654.75,725.72,654.52,724.45,654.28z"/>
		<path class="st1" d="M1350.86,288.88c-1.57-1.1-1.63-2.6-1.09-4.24C1351.27,285.76,1351.61,287.18,1350.86,288.88z"/>
		<path class="st1" d="M663.81,172.44c0.32,0.49,0.6,1,0.84,1.54c-1.59,0.17-3.07,0.04-3.99-1.53
			C661.7,172.07,662.75,172.32,663.81,172.44z"/>
		<path class="st1" d="M1360.32,277.48c1.9-0.43,3.43,0.18,4.68,1.63C1363.04,279.71,1361.55,278.96,1360.32,277.48z"/>
		<path class="st1" d="M613.27,628.16c1.8-0.34,3.23,0.2,4.23,1.77C615.6,630.51,614.39,629.46,613.27,628.16z"/>
		<path class="st1" d="M1381.75,578.98c1.48,1.08,1.75,2.54,1.31,4.21C1381.57,582.12,1381,580.76,1381.75,578.98z"/>
		<path class="st1" d="M516.7,267.59c0.71,0.98,0.26,1.71-0.5,2.37C515.64,269.01,515.73,268.21,516.7,267.59z"/>
		<path class="st1" d="M694,648.86c0.34,0.51,0.67,1.03,0.98,1.57c-1.08,0-1.92-0.43-2.41-1.43
			C693.02,648.65,693.5,648.6,694,648.86z"/>
		<path class="st1" d="M1232,196.31c0.44-0.53,0.88-1.05,1.33-1.58c0.55-0.12,1.06-0.04,1.54,0.26
			C1234.19,196.05,1233.19,196.38,1232,196.31z"/>
		<path class="st1" d="M530.48,196.15c0.52,1.55,0.52,1.55-0.73,2.56C529.22,197.64,529.46,196.78,530.48,196.15z"/>
		<path class="st1" d="M705.11,651.23c0.51,0.21,0.88,0.56,1.13,1.05c-0.93,0.13-1.74-0.1-2.38-0.82
			C704.28,651.35,704.69,651.28,705.11,651.23z"/>
		<path class="st1" d="M1387.17,664.03c-0.17-1.11,0.29-1.83,1.33-2.19C1388.69,662.95,1388.18,663.64,1387.17,664.03z"/>
		<path class="st1" d="M519.09,256.29c0.47,1.47,0.47,1.47-0.73,2.47C517.82,257.7,518,256.86,519.09,256.29z"/>
		<path class="st1" d="M1384.06,644.66c0.7,1.02,0.21,1.74-0.59,2.39C1382.96,646.08,1383.05,645.26,1384.06,644.66z"/>
		<path class="st1" d="M673.38,645.4c0.64,0.17,1.09,0.56,1.36,1.16c-1.06,0.13-2.03-0.08-2.81-0.86
			C672.4,645.58,672.89,645.48,673.38,645.4z"/>
		<path class="st1" d="M1091.67,353.9c0.48,1.5,0.48,1.5-0.74,2.52C1090.35,355.34,1090.57,354.49,1091.67,353.9z"/>
		<path class="st1" d="M526.58,216.94c0.54,1.49,0.54,1.49-0.66,2.54C525.31,218.41,525.5,217.56,526.58,216.94z"/>
		<path class="st1" d="M1417.82,579.74c-0.48-1.45-0.48-1.45,0.73-2.48C1419.08,578.31,1418.93,579.16,1417.82,579.74z"/>
		<path class="st1" d="M1351.49,539.55c-0.78-0.16-1.04-0.61-0.76-1.36C1351.57,538.31,1351.76,538.81,1351.49,539.55z"/>
		<path class="st1" d="M1353.05,542.16c-1.06-0.37-1.56-1.1-1.4-2.24C1352.73,540.28,1353.24,541,1353.05,542.16z"/>
		<path class="st1" d="M1415.29,590.72c-0.56-1.09-0.32-2.07,0.51-2.07c0.43,0.48,0.49,1.01,0.11,1.53
			C1415.76,590.39,1415.5,590.54,1415.29,590.72z"/>
		<path class="st1" d="M1383.71,586.41c1.03,0.59,1.34,1.41,0.79,2.5C1383.37,588.35,1383.14,587.51,1383.71,586.41z"/>
		<path class="st1" d="M1367.95,585.22c-0.92-0.65-1.3-1.44-0.61-2.49C1368.4,583.35,1368.49,584.21,1367.95,585.22z"/>
		<path class="st1" d="M505.07,498.32c1,0.55,1.36,1.33,0.87,2.42C504.81,500.23,504.56,499.41,505.07,498.32z"/>
		<path class="st1" d="M891.56,710.77c0.67,0.08,1.05,0.44,0.99,1.04c-0.02,0.23-0.28,0.45-0.43,0.67
			C891.64,712.01,891.45,711.44,891.56,710.77z"/>
		<path class="st1" d="M1315.9,727.51c0.13-1.29,0.56-1.71,1.58-1.7C1317.29,726.69,1316.76,727.26,1315.9,727.51z"/>
		<path class="st1" d="M1314.14,729.39c0.1-1.22,0.48-1.59,1.5-1.58C1315.44,728.62,1314.94,729.15,1314.14,729.39z"/>
		<path class="st1" d="M1300.93,742.56c0-1.25,0.43-1.44,1.59-1.53C1302.29,741.85,1301.76,742.36,1300.93,742.56z"/>
		<path class="st1" d="M1298.95,744.41c0.24-1.32,0.56-1.59,1.69-1.59C1300.39,743.69,1299.83,744.22,1298.95,744.41z"/>
		<path class="st1" d="M789.7,860.39c0.56,1.03,0.43,1.88-0.66,2.47C788.4,861.81,788.71,861.01,789.7,860.39z"/>
		<path class="st1" d="M788.91,873.74c1.1,0.59,1.3,1.43,0.71,2.49C788.59,875.63,788.29,874.81,788.91,873.74z"/>
		<path class="st1" d="M609.82,164.37l-0.8,0.3l-0.85-0.1c-0.28-0.48-0.53-0.96-0.78-1.46
			C608.43,163.09,609.25,163.48,609.82,164.37z"/>
		<path class="st1" d="M503.33,489.04c1.24,1.02,1.24,1.02,0.74,2.52C502.99,490.96,502.78,490.11,503.33,489.04z"/>
		<path class="st1" d="M1157.93,234.52c-0.24,0.78-0.77,1.26-1.55,1.45C1156.57,234.67,1156.76,234.52,1157.93,234.52z"/>
		<path class="st1" d="M1418.63,478.29c-0.99-0.61-1.37-1.4-0.75-2.49C1419,476.37,1419.13,477.23,1418.63,478.29z"/>
		<path class="st1" d="M1416.65,469.09c-1.06-0.55-1.4-1.37-0.94-2.5C1417.02,467.54,1417.02,467.54,1416.65,469.09z"/>
		<path class="st1" d="M1076.54,449.77c0.58,1.04,0.38,1.89-0.6,2.56C1075.37,450.82,1075.37,450.82,1076.54,449.77z"/>
		<path class="st1" d="M1085.34,389.58c0.53,0.48,0.64,1.05,0.25,1.65c-0.16,0.25-0.42,0.43-0.63,0.64
			C1084.37,390.77,1084.57,389.58,1085.34,389.58z"/>
		<path class="st1" d="M1366.31,384.16c-0.89-0.18-1.46-0.71-1.72-1.57C1365.66,382.56,1366.23,383.1,1366.31,384.16z"/>
		<path class="st1" d="M1364.27,382.32c-0.79-0.17-1.32-0.63-1.56-1.4C1363.73,380.84,1364.21,381.35,1364.27,382.32z"/>
		<path class="st1" d="M534.25,177.67c0.41,1.12,0.04,1.93-1.01,2.45C532.94,178.57,532.94,178.57,534.25,177.67z"/>
		<path class="st1" d="M956.31,905.54c0.39-0.52,0.78-1.03,1.17-1.55c0.55-0.17,1.07-0.11,1.55,0.2
			C958.4,905.17,957.47,905.58,956.31,905.54z"/>
		<path class="st1" d="M1087.94,376.2c0.56,1.55,0.56,1.55-0.7,2.6C1086.71,377.73,1086.89,376.85,1087.94,376.2z"/>
		<path class="st1" d="M947.36,907.53c0.22-0.54,0.48-1.06,0.77-1.57c0.5-0.26,0.97-0.22,1.42,0.11
			C949.12,907.01,948.37,907.46,947.36,907.53z"/>
		<path class="st1" d="M1090.21,361.66c0.56,1.14,0.33,2.25-0.48,2.25c-0.55-0.49-0.63-1.05-0.19-1.64
			C1089.72,362.03,1089.99,361.86,1090.21,361.66z"/>
		<path class="st1" d="M1156.05,236.27c-0.25,0.84-0.8,1.36-1.65,1.56C1154.61,236.51,1154.91,236.26,1156.05,236.27z"/>
		<path class="st1" d="M842.3,909.57c0.42,0.51,0.84,1.02,1.26,1.53c-1.13,0.08-2.07-0.25-2.66-1.29
			C841.33,909.5,841.8,909.42,842.3,909.57z"/>
		<path class="st1" d="M652.84,170.33c0.43,0.53,0.86,1.06,1.3,1.59c-1.2,0.07-2.2-0.28-2.87-1.35
			C651.75,170.28,652.28,170.19,652.84,170.33z"/>
		<path class="st1" d="M1371.46,241.86c-0.67-0.08-1.04-0.46-1.01-1.12c0.03-0.65,0.44-1.01,1.09-1.07
			C1371.87,240.65,1371.8,241.86,1371.46,241.86z"/>
		<path class="st1" d="M505.59,331.5c0.67,0.99,0.35,1.76-0.53,2.41C504.46,332.94,504.56,332.12,505.59,331.5z"/>
		<path class="st1" d="M507.97,316.59c0.48,1.06,0.36,1.97-0.67,2.65C506.71,317.69,506.71,317.69,507.97,316.59z"/>
		<path class="st1" d="M514.76,278.55c0.79,1.04,0.37,1.86-0.46,2.61C513.81,280.17,513.93,279.3,514.76,278.55z"/>
		<path class="st1" d="M1202.6,141.78c0.44,1.55,0.44,1.55-0.79,2.52C1201.24,143.2,1201.55,142.38,1202.6,141.78z"/>
		<path class="st1" d="M1367.28,632.28c-0.69-1.05-0.34-1.84,0.64-2.47C1368.46,630.83,1368.35,631.68,1367.28,632.28z"/>
		<path class="st1" d="M1222.74,198.26c0.36-0.52,0.73-1.03,1.09-1.55c0.57-0.1,1.12-0.02,1.63,0.25
			C1224.83,197.97,1223.87,198.29,1222.74,198.26z"/>
		<path class="st1" d="M532.48,185.11c0.53,1.07,0.32,1.9-0.79,2.44C531.1,186.46,531.42,185.66,532.48,185.11z"/>
		<path class="st1" d="M1320,496.45c-1.06,0.57-1.99,1.26-2.55,2.37c-0.54-0.23-1.16-0.36-1.61-0.71c-3.8-2.95-7.57-5.94-11.35-8.92
			c0.12-1.08,1.01-1.41,1.79-1.86c4.43,2.2,8.56,4.89,12.61,7.7C1319.37,495.36,1319.64,495.97,1320,496.45z"/>
		<path class="st1" d="M1306.29,487.33c-0.78,0.44-1.67,0.78-1.79,1.86c-0.96-0.08-1.74-0.57-2.5-1.1
			c-2.78-1.94-5.55-3.91-8.35-5.81c-0.49-0.33-1.14-0.42-1.72-0.63c-0.12-0.48-0.27-0.95-0.47-1.4c0.91,0.15,1.89,0.15,2.73,0.48
			c3.74,1.48,7.4,3.16,10.85,5.25C1305.56,486.28,1305.88,486.87,1306.29,487.33z"/>
		<path class="st1" d="M1324.63,352.94c0.23,0.39,0.37,0.81,0.41,1.26c-0.44,0.61-1.47,0.71-1.48,1.69c-1.82,0.4-2.84-0.9-4-1.89
			c-0.21-0.18-0.39-0.61-0.32-0.84c0.07-0.22,0.48-0.42,0.76-0.46c0.61-0.1,1.24-0.17,1.85-0.13
			C1322.78,352.63,1323.7,352.81,1324.63,352.94z"/>
		<path class="st1" d="M1291.47,480.24c0.19,0.45,0.35,0.92,0.47,1.4c-0.54-0.21-1.12-0.37-1.62-0.65
			c-0.22-0.12-0.38-0.48-0.41-0.75c-0.03-0.26,0.07-0.75,0.22-0.8C1290.75,479.24,1291.22,479.56,1291.47,480.24z"/>
		<path class="st1" d="M1047.34,489.86c0.53-0.18,1.07-0.24,1.62-0.16c0.37,0.35,0.66,0.75,0.87,1.22
			C1048.8,491.01,1047.96,490.69,1047.34,489.86z"/>
		<path class="st1" d="M626.74,167c0.39,0.32,0.68,0.72,0.88,1.19c-1.06,0.12-1.97-0.16-2.68-0.99
			C625.53,167.02,626.13,166.96,626.74,167z"/>
	</g>
</g>
</svg>
